<?xml version="1.0" encoding="utf-8"?>
<!-- Generator: Adobe Illustrator 15.1.0, SVG Export Plug-In . SVG Version: 6.00 Build 0)  -->
<!DOCTYPE svg PUBLIC "-//W3C//DTD SVG 1.1//EN" "http://www.w3.org/Graphics/SVG/1.1/DTD/svg11.dtd">
<svg version="1.1" id="Layer_1" xmlns="http://www.w3.org/2000/svg" xmlns:xlink="http://www.w3.org/1999/xlink" x="0px" y="0px"
	 width="149.5px" height="162.5px" viewBox="0 0 149.5 162.5" enable-background="new 0 0 149.5 162.5" xml:space="preserve">
<g>
	<g>
		<path fill="#303030" d="M123.623,64.611C123.201,33.305,97.353,8,65.654,8C33.684,8,7.686,33.727,7.686,65.095
			c-0.061,0.813-1.779,20.297,12.125,40.083c5.942,8.505,9.833,16.649,11.793,24.883c1.538,6.394,2.322,13.029,2.322,19.695v3.016
			h67.168v-27.145h24.128V98.482h17.191L123.623,64.611z M90.718,90.641c-6.847,6.997-16.015,10.857-25.817,10.857
			s-18.971-3.86-25.817-10.857c-6.696-6.816-10.375-15.805-10.375-25.335c0-9.561,3.68-18.549,10.375-25.335
			c6.846-6.998,16.015-10.858,25.817-10.858s18.971,3.86,25.817,10.858c6.695,6.786,10.375,15.774,10.375,25.335
			C101.093,74.836,97.413,83.824,90.718,90.641z"/>
	</g>
</g>
<g>
	<g>
		<path fill="#303030" d="M76.431,41.924c-4.172-3.44-9.662-4.824-15.048-3.77c-7.066,1.367-12.737,7.033-14.111,14.105l5.92,1.148
			c0.91-4.677,4.663-8.429,9.337-9.333c3.682-0.707,7.247,0.18,10.063,2.503c2.779,2.291,4.373,5.67,4.373,9.266
			c0,3.977-1.968,7.69-5.261,9.932c-6.111,4.162-9.761,10.875-9.761,17.964h6.032c0-5.089,2.663-9.941,7.122-12.977
			c4.947-3.367,7.899-8.942,7.899-14.919C82.997,50.438,80.603,45.367,76.431,41.924z"/>
	</g>
</g>
<g>
	<g>
		<rect x="61.884" y="89.425" fill="#303030" width="6.032" height="6.032"/>
	</g>
</g>
</svg>
